<?xml version="1.0" encoding="utf-8"?>
<!-- Generator: Adobe Illustrator 27.5.0, SVG Export Plug-In . SVG Version: 6.00 Build 0)  -->
<svg version="1.1" xmlns="http://www.w3.org/2000/svg" xmlns:xlink="http://www.w3.org/1999/xlink" x="0px" y="0px"
	 viewBox="0 0 500 500" style="enable-background:new 0 0 500 500;" xml:space="preserve">
<g id="Background_Complete">
	<g>
		<rect y="382.398" style="fill:#EBEBEB;" width="500" height="0.25"/>
		<rect x="416.779" y="398.494" style="fill:#EBEBEB;" width="33.122" height="0.25"/>
		<rect x="260.335" y="395.361" style="fill:#EBEBEB;" width="12.887" height="0.25"/>
		<rect x="322.527" y="396.417" style="fill:#EBEBEB;" width="27.14" height="0.25"/>
		<rect x="359.667" y="389.208" style="fill:#EBEBEB;" width="56.111" height="0.25"/>
		<rect x="52.459" y="400.778" style="fill:#EBEBEB;" width="26.527" height="0.25"/>
		<rect x="87.889" y="400.778" style="fill:#EBEBEB;" width="23" height="0.25"/>
		<rect x="131" y="395.236" style="fill:#EBEBEB;" width="60.814" height="0.25"/>
		<path style="fill:#EBEBEB;" d="M237.014,337.8H43.915c-3.147,0-5.708-2.561-5.708-5.708V60.66c0-3.147,2.561-5.708,5.708-5.708
			h193.099c3.146,0,5.707,2.561,5.707,5.708v271.432C242.721,335.239,240.16,337.8,237.014,337.8z M43.915,55.203
			c-3.01,0-5.458,2.448-5.458,5.458v271.432c0,3.01,2.448,5.458,5.458,5.458h193.099c3.009,0,5.457-2.448,5.457-5.458V60.66
			c0-3.009-2.448-5.458-5.457-5.458H43.915z"/>
		<path style="fill:#EBEBEB;" d="M453.31,337.8H260.212c-3.147,0-5.707-2.561-5.707-5.708V60.66c0-3.147,2.561-5.708,5.707-5.708
			H453.31c3.148,0,5.708,2.561,5.708,5.708v271.432C459.019,335.239,456.458,337.8,453.31,337.8z M260.212,55.203
			c-3.009,0-5.457,2.448-5.457,5.458v271.432c0,3.01,2.448,5.458,5.457,5.458H453.31c3.01,0,5.458-2.448,5.458-5.458V60.66
			c0-3.009-2.448-5.458-5.458-5.458H260.212z"/>
	</g>
	<g>
		<g>
			<g>
				
					<rect x="74.665" y="94.702" transform="matrix(-1 -1.224647e-16 1.224647e-16 -1 297.7132 345.9865)" style="fill:#E6E6E6;" width="148.384" height="156.582"/>
				
					<rect x="68.368" y="94.702" transform="matrix(-1 -1.224647e-16 1.224647e-16 -1 288.4749 345.9865)" style="fill:#F0F0F0;" width="151.738" height="156.582"/>
				
					<rect x="74.665" y="251.284" transform="matrix(-1 -1.224647e-16 1.224647e-16 -1 297.7132 508.4182)" style="fill:#E6E6E6;" width="148.384" height="5.85"/>
				
					<rect x="57.879" y="251.284" transform="matrix(-1 -1.224647e-16 1.224647e-16 -1 267.4963 508.4182)" style="fill:#F0F0F0;" width="151.738" height="5.85"/>
				
					<rect x="74.761" y="105.939" transform="matrix(-1.836970e-16 1 -1 -1.836970e-16 317.2308 28.7558)" style="fill:#FAFAFA;" width="138.952" height="134.109"/>
				<polygon style="fill:#FFFFFF;" points="165.618,242.469 144.342,103.517 119.92,103.517 141.196,242.469 				"/>
				<polygon style="fill:#FFFFFF;" points="135.949,242.469 114.673,103.517 105.152,103.517 126.428,242.469 				"/>
				
					<rect x="8.267" y="172.434" transform="matrix(-1.836970e-16 1 -1 -1.836970e-16 250.7361 95.2505)" style="fill:#E6E6E6;" width="138.952" height="1.119"/>
				<rect x="74.274" y="167.438" style="fill:#F0F0F0;" width="139.926" height="11.111"/>
			</g>
		</g>
		<g>
			<g>
				
					<rect x="273.222" y="175.918" transform="matrix(-1 -1.224647e-16 1.224647e-16 -1 563.5074 558.3169)" style="fill:#E6E6E6;" width="17.063" height="206.48"/>
				<polygon style="fill:#F0F0F0;" points="277.709,382.398 273.222,382.398 273.222,374.016 282.413,374.016 				"/>
				
					<rect x="411.303" y="175.918" transform="matrix(-1 -1.224647e-16 1.224647e-16 -1 839.6694 558.3169)" style="fill:#E6E6E6;" width="17.063" height="206.48"/>
				
					<rect x="273.222" y="175.918" transform="matrix(-1 -1.224647e-16 1.224647e-16 -1 688.4409 555.391)" style="fill:#F0F0F0;" width="141.997" height="203.554"/>
				<path style="fill:#E6E6E6;" d="M279.947,238.233h128.546c1.792,0,3.245-1.453,3.245-3.245v-52.492
					c0-1.792-1.453-3.245-3.245-3.245H279.947c-1.792,0-3.245,1.453-3.245,3.245v52.492
					C276.702,236.78,278.155,238.233,279.947,238.233z"/>
				<polygon style="fill:#F0F0F0;" points="410.732,382.398 415.219,382.398 415.219,374.016 406.028,374.016 				"/>
				<path style="fill:#E6E6E6;" d="M279.947,306.746h128.546c1.792,0,3.245-1.453,3.245-3.245V251.01
					c0-1.792-1.453-3.245-3.245-3.245H279.947c-1.792,0-3.245,1.453-3.245,3.245v52.492
					C276.702,305.293,278.155,306.746,279.947,306.746z"/>
				<path style="fill:#E6E6E6;" d="M279.947,375.259h128.546c1.792,0,3.245-1.453,3.245-3.245v-52.492
					c0-1.792-1.453-3.245-3.245-3.245H279.947c-1.792,0-3.245,1.453-3.245,3.245v52.492
					C276.702,373.807,278.155,375.259,279.947,375.259z"/>
				<path style="fill:#F0F0F0;" d="M317.08,186.527h51.267c2.163,0,4.23-3.215,5.718-8.892l0,0h-62.702l0,0
					C312.85,183.312,314.917,186.527,317.08,186.527z"/>
				<path style="fill:#F0F0F0;" d="M317.08,255.04h51.267c2.163,0,4.23-3.215,5.718-8.892l0,0h-62.702l0,0
					C312.85,251.825,314.917,255.04,317.08,255.04z"/>
				<path style="fill:#F0F0F0;" d="M317.08,323.554h51.267c2.163,0,4.23-3.215,5.718-8.892l0,0h-62.702l0,0
					C312.85,320.338,314.917,323.554,317.08,323.554z"/>
			</g>
			<g>
				<path style="fill:#E6E6E6;" d="M380.479,147.338c0,0,0.227,28.813,8.926,28.813c8.699,0,8.926-28.813,8.926-28.813H380.479z"/>
				<path style="fill:#E6E6E6;" d="M286.667,147.547c0,0,0.565,28.604,22.232,28.604c21.667,0,22.232-28.604,22.232-28.604H286.667z
					"/>
				<path style="fill:#F0F0F0;" d="M314.37,154.73c0,0,0.423,21.42,16.649,21.42c16.225,0,16.649-21.42,16.649-21.42H314.37z"/>
				<path style="fill:#EBEBEB;" d="M336.036,160.449c0,0,0.31,15.702,12.204,15.702s12.204-15.702,12.204-15.702H336.036z"/>
				<g>
					<path style="fill:#E6E6E6;" d="M395.037,151.571c-0.106,0-0.214-0.024-0.316-0.076c-0.949-0.483-9.251-4.843-8.688-9.107
						c0.216-1.635,1.056-2.956,1.797-4.122c1.159-1.822,1.996-3.139,0.547-5.112c-2.221-3.024,0.203-5.493,2.342-7.671
						c1.007-1.025,2.049-2.086,2.636-3.181c0.881-1.644,0.172-2.895-0.808-4.625c-0.837-1.479-1.786-3.154-1.825-5.402
						c-0.126-7.355,5.693-10.659,5.941-10.795c0.336-0.185,0.759-0.064,0.946,0.271c0.186,0.336,0.065,0.76-0.271,0.948
						c-0.218,0.121-5.334,3.055-5.222,9.552c0.032,1.893,0.852,3.34,1.644,4.739c1.017,1.795,2.067,3.65,0.823,5.971
						c-0.681,1.271-1.794,2.404-2.87,3.5c-2.314,2.356-3.66,3.901-2.213,5.869c2.014,2.742,0.682,4.837-0.494,6.686
						c-0.696,1.095-1.416,2.227-1.592,3.556c-0.369,2.794,5.605,6.493,7.938,7.683c0.343,0.175,0.48,0.595,0.305,0.938
						C395.535,151.432,395.29,151.571,395.037,151.571z"/>
					<path style="fill:#F0F0F0;" d="M400.121,83.667c0,0-11.154,11.967-3.602,19.52C410.193,103.186,400.121,83.667,400.121,83.667z
						"/>
					<path style="fill:#F0F0F0;" d="M384.274,87.117c0,0,0.978,16.33,11.656,16.067C405.357,93.279,384.274,87.117,384.274,87.117z"
						/>
					<path style="fill:#F0F0F0;" d="M405.029,113.64c0,0-11.529-0.736-12.274,6.769C398.875,127.878,405.029,113.64,405.029,113.64z
						"/>
					<path style="fill:#F0F0F0;" d="M383.411,102.747c0,0,1.36,11.472,8.877,10.848
						C398.527,106.226,383.411,102.747,383.411,102.747z"/>
					<path style="fill:#F0F0F0;" d="M382.785,123.431c0,0,6.838,2.971,5.057,7.5C382.128,133.419,382.785,123.431,382.785,123.431z"
						/>
					<path style="fill:#F0F0F0;" d="M394.078,131.329c0,0-1.279,5.585-4.952,4.879C386.439,132.243,394.078,131.329,394.078,131.329
						z"/>
					<path style="fill:#F0F0F0;" d="M398.386,125.755c0,0-5.766,4.726-8.982,1.073C389.801,120.608,398.386,125.755,398.386,125.755
						z"/>
				</g>
			</g>
		</g>
		<g>
			<g>
				<rect x="72.202" y="289.44" style="fill:#F5F5F5;" width="70.863" height="92.958"/>
				
					<rect x="41.635" y="335.304" transform="matrix(-1.836970e-16 1 -1 -1.836970e-16 415.4858 256.3525)" style="fill:#E6E6E6;" width="75.863" height="1.231"/>
				<rect x="78.951" y="297.987" style="fill:#E6E6E6;" width="56.24" height="1.559"/>
			</g>
			<g>
				<rect x="144.296" y="289.44" style="fill:#F5F5F5;" width="70.863" height="92.958"/>
				
					<rect x="215.159" y="289.44" transform="matrix(-1 -1.224647e-16 1.224647e-16 -1 437.3819 671.8384)" style="fill:#E0E0E0;" width="7.065" height="92.958"/>
				
					<rect x="113.728" y="335.304" transform="matrix(-1.836970e-16 1 -1 -1.836970e-16 487.5792 184.2591)" style="fill:#E6E6E6;" width="75.863" height="1.231"/>
				
					<rect x="97.825" y="335.927" transform="matrix(-1.836970e-16 1 -1 -1.836970e-16 480.2229 192.862)" style="fill:#E6E6E6;" width="91.712" height="1.231"/>
				<rect x="151.045" y="297.987" style="fill:#E6E6E6;" width="56.24" height="1.559"/>
			</g>
			<path style="fill:#E0E0E0;" d="M139.399,298.767L139.399,298.767c0.733,0,1.327,0.594,1.327,1.326v21.595
				c0,0.733-0.594,1.327-1.327,1.327l0,0c-0.732,0-1.326-0.594-1.326-1.327v-21.595
				C138.073,299.361,138.667,298.767,139.399,298.767z"/>
			<path style="fill:#E0E0E0;" d="M147.961,298.767L147.961,298.767c0.733,0,1.327,0.594,1.327,1.326v21.595
				c0,0.733-0.594,1.327-1.327,1.327l0,0c-0.733,0-1.326-0.594-1.326-1.327v-21.595
				C146.635,299.361,147.229,298.767,147.961,298.767z"/>
		</g>
		<rect x="70" y="286.276" style="fill:#EBEBEB;" width="154.5" height="4.41"/>
		<rect x="212.167" y="286.276" style="fill:#E0E0E0;" width="12.333" height="4.41"/>
	</g>
</g>
<g id="Background_Simple" style="display:none;">
	<g style="display:inline;">
		<path style="fill:#407BFF;" d="M376.551,374.856c140.301-40.346-42.659-109.566-66.102-147.875
			c-16.82-27.486,24.715-81.179-5.977-115.044c-32.255-35.589-106.27-40.561-153.607-25.409
			C79.339,109.424,12.24,231.306,79.801,281.541c51.238,38.098,130.845-6.934,187.704,24.674
			C303.253,326.086,300.169,396.819,376.551,374.856z"/>
		<path style="opacity:0.9;fill:#FFFFFF;" d="M376.551,374.856c140.301-40.346-42.659-109.566-66.102-147.875
			c-16.82-27.486,24.715-81.179-5.977-115.044c-32.255-35.589-106.27-40.561-153.607-25.409
			C79.339,109.424,12.24,231.306,79.801,281.541c51.238,38.098,130.845-6.934,187.704,24.674
			C303.253,326.086,300.169,396.819,376.551,374.856z"/>
	</g>
</g>
<g id="Shadow_1_">
	<ellipse id="_x3C_Path_x3E__216_" style="fill:#F5F5F5;" cx="250" cy="416.238" rx="193.889" ry="11.323"/>
</g>
<g id="Application">
	<g>
		<g>
			<g>
				
					<rect x="435.265" y="98.285" transform="matrix(0.3433 -0.9392 0.9392 0.3433 184.0081 480.7136)" style="fill:#407BFF;" width="1" height="20.974"/>
				
					<rect x="417.271" y="98.848" transform="matrix(0.3433 -0.9392 0.9392 0.3433 178.37 459.4947)" style="fill:#407BFF;" width="1" height="6.692"/>
				<path style="fill:#407BFF;" d="M352.574,81.559l104.05,38.031c5.885,2.151,8.94,8.726,6.789,14.611l-79.662,217.951
					c-2.151,5.885-8.726,8.94-14.611,6.789l-104.05-38.031c-5.885-2.151-8.94-8.726-6.789-14.611l79.662-217.951
					C340.114,82.463,346.689,79.408,352.574,81.559z"/>
				<path style="fill:#FFFFFF;" d="M379.714,350.525l79.564-217.684c1.467-4.013-0.597-8.456-4.611-9.922l-105.444-38.54
					c-4.013-1.467-8.456,0.597-9.922,4.611l-79.564,217.684c-1.467,4.013,0.597,8.456,4.61,9.923l105.444,38.54
					C373.805,356.602,378.247,354.538,379.714,350.525z"/>
				<path style="fill:#407BFF;" d="M413.723,106.42L413.723,106.42c-3.004,4.033-8.3,5.614-13.023,3.888l-2.096-0.766
					c-4.723-1.726-7.752-6.35-7.447-11.369l0,0L413.723,106.42z"/>
				<path style="opacity:0.1;fill:#263238;" d="M376.654,349.447L376.654,349.447c0.981,0.358,2.077-0.151,2.435-1.132
					l78.151-213.818c0.359-0.981-0.151-2.077-1.132-2.435l0,0c-0.981-0.359-2.077,0.151-2.435,1.132l-78.151,213.819
					C375.164,347.993,375.673,349.088,376.654,349.447z"/>
				<path style="opacity:0.1;fill:#263238;" d="M262.771,307.822L262.771,307.822c0.981,0.358,2.077-0.151,2.435-1.132
					l78.151-213.818c0.358-0.981-0.151-2.077-1.132-2.435l0,0c-0.981-0.359-2.077,0.151-2.435,1.132l-78.151,213.819
					C261.281,306.368,261.79,307.464,262.771,307.822z"/>
			</g>
		</g>
		<g style="opacity:0.9;">
			<g>
				<path style="fill:#FFFFFF;" d="M374.642,332.729l32.152-208.045c0.789-5.102-2.708-9.877-7.81-10.666l-98.558-15.232
					c-5.102-0.788-9.877,2.708-10.666,7.811l-32.152,208.045c-0.788,5.102,2.708,9.877,7.811,10.666l98.558,15.232
					C369.078,341.328,373.853,337.831,374.642,332.729z"/>
				<path style="fill:#407BFF;" d="M365.409,341.149c-0.499,0-1.003-0.038-1.51-0.116l-98.558-15.231
					c-5.367-0.83-9.058-5.87-8.228-11.236l32.152-208.045c0.402-2.6,1.792-4.887,3.914-6.441c2.123-1.555,4.727-2.187,7.322-1.787
					l98.558,15.231c2.6,0.402,4.887,1.792,6.441,3.914c1.554,2.123,2.189,4.723,1.787,7.322l-32.152,208.045
					C374.385,337.664,370.181,341.149,365.409,341.149z M298.979,99.174c-1.865,0-3.676,0.589-5.209,1.712
					c-1.907,1.396-3.156,3.452-3.517,5.787l-32.152,208.045c-0.361,2.336,0.209,4.672,1.605,6.579
					c1.396,1.907,3.452,3.156,5.787,3.517l98.558,15.231c4.822,0.743,9.351-2.571,10.096-7.393l0.494,0.076l-0.494-0.076
					L406.3,124.607c0.361-2.336-0.209-4.672-1.605-6.579c-1.396-1.907-3.452-3.156-5.787-3.517L300.349,99.28
					C299.891,99.209,299.434,99.174,298.979,99.174z"/>
			</g>
			<path style="fill:#407BFF;" d="M383.272,196.15c-0.491,0-0.985-0.038-1.479-0.114l-89.738-13.869
				c-2.522-0.39-4.742-1.738-6.25-3.798c-1.508-2.059-2.123-4.582-1.734-7.104l6.574-42.538c0.39-2.523,1.738-4.742,3.797-6.25
				c2.06-1.509,4.585-2.123,7.104-1.734l89.739,13.868c5.207,0.805,8.789,5.696,7.984,10.902l-6.574,42.539
				c-0.39,2.522-1.738,4.742-3.798,6.25C387.242,195.514,385.286,196.15,383.272,196.15z M300.07,121.628
				c-1.803,0-3.554,0.569-5.037,1.654c-1.843,1.35-3.051,3.337-3.4,5.596l-6.574,42.539c-0.349,2.259,0.202,4.518,1.552,6.361
				c1.35,1.844,3.337,3.051,5.596,3.4l89.738,13.869c2.262,0.348,4.518-0.203,6.361-1.552c1.844-1.35,3.051-3.337,3.4-5.596
				l6.574-42.539c0.72-4.662-2.486-9.041-7.148-9.762l-89.739-13.868C300.952,121.662,300.509,121.628,300.07,121.628z"/>
			<path style="fill:#407BFF;" d="M371.315,260.81c-0.598,0-1.204-0.045-1.813-0.14l-85.242-13.174
				c-6.447-0.996-10.881-7.051-9.885-13.498c0.997-6.447,7.055-10.879,13.498-9.885l85.242,13.174
				c3.123,0.482,5.871,2.152,7.738,4.702c1.867,2.549,2.629,5.673,2.147,8.796C382.098,256.623,377.048,260.81,371.315,260.81z
				 M286.06,224.974c-5.248,0-9.871,3.833-10.697,9.177c-0.912,5.902,3.147,11.445,9.049,12.357l85.242,13.174
				c5.903,0.909,11.446-3.148,12.357-9.049l0,0c0.442-2.859-0.256-5.719-1.965-8.053c-1.709-2.334-4.225-3.862-7.083-4.304
				l-85.242-13.174C287.164,225.016,286.608,224.974,286.06,224.974z"/>
			<path style="fill:#407BFF;" d="M366.987,288.823c-0.599,0-1.205-0.045-1.814-0.14l-85.242-13.173
				c-6.447-0.997-10.881-7.052-9.885-13.498c0.482-3.123,2.152-5.871,4.702-7.738c2.55-1.867,5.675-2.63,8.796-2.146l85.242,13.173
				c6.447,0.996,10.881,7.051,9.885,13.498C377.769,284.636,372.719,288.823,366.987,288.823z M281.714,252.986
				c-2.283,0-4.499,0.72-6.375,2.095c-2.334,1.709-3.862,4.225-4.304,7.084c-0.912,5.902,3.147,11.445,9.049,12.357l85.242,13.173
				c5.905,0.908,11.445-3.148,12.357-9.049c0.912-5.902-3.147-11.445-9.049-12.357l-85.242-13.173
				C282.832,253.029,282.271,252.986,281.714,252.986z"/>
			<path style="fill:#407BFF;" d="M362.675,316.839c-0.608,0-1.22-0.047-1.832-0.142l-85.242-13.173
				c-6.447-0.996-10.881-7.051-9.885-13.498c0.997-6.447,7.054-10.882,13.498-9.885l85.242,13.174
				c3.123,0.482,5.871,2.152,7.738,4.702c1.867,2.55,2.629,5.673,2.147,8.796l-0.494-0.076l0.494,0.077
				c-0.482,3.123-2.152,5.871-4.702,7.738C367.59,316.052,365.168,316.839,362.675,316.839z M277.402,281.001
				c-5.248,0-9.871,3.833-10.697,9.177c-0.912,5.902,3.147,11.445,9.049,12.357l85.242,13.173c2.859,0.441,5.719-0.256,8.053-1.965
				c2.334-1.709,3.862-4.225,4.304-7.083l0,0c0.442-2.859-0.256-5.719-1.965-8.053c-1.709-2.334-4.225-3.862-7.083-4.304
				l-85.242-13.174C278.505,281.043,277.95,281.001,277.402,281.001z"/>
			<path style="fill:#263238;" d="M377.744,216.763c-0.211,0-0.424-0.016-0.639-0.049l-42.643-6.59
				c-1.101-0.17-2.069-0.759-2.727-1.657c-0.658-0.898-0.926-1.999-0.756-3.099c0.351-2.271,2.484-3.835,4.756-3.483l42.642,6.59
				c1.101,0.17,2.069,0.758,2.727,1.656c0.658,0.898,0.926,1.999,0.756,3.099l0,0C381.543,215.287,379.764,216.763,377.744,216.763z
				 M335.097,202.835c-1.535,0-2.887,1.122-3.129,2.685c-0.129,0.836,0.075,1.673,0.575,2.356c0.5,0.683,1.236,1.13,2.072,1.259
				l42.643,6.59c0.837,0.129,1.673-0.075,2.356-0.575c0.683-0.5,1.13-1.236,1.259-2.072l0,0c0.129-0.836-0.075-1.673-0.575-2.356
				c-0.5-0.683-1.236-1.13-2.072-1.259l-42.643-6.59C335.419,202.848,335.257,202.835,335.097,202.835z"/>
			<path style="fill:#263238;" d="M375.881,228.82c-0.211,0-0.424-0.016-0.639-0.049l-60.589-9.364
				c-1.101-0.17-2.069-0.758-2.727-1.656c-0.658-0.899-0.926-1.999-0.756-3.099c0.17-1.101,0.758-2.069,1.656-2.727
				c0.898-0.658,2-0.926,3.099-0.756l60.589,9.363c2.272,0.351,3.834,2.485,3.483,4.756l0,0
				C379.68,227.345,377.9,228.82,375.881,228.82z M315.282,212.119c-0.667,0-1.316,0.211-1.865,0.613
				c-0.683,0.5-1.13,1.236-1.259,2.072c-0.129,0.836,0.075,1.673,0.575,2.356c0.5,0.683,1.236,1.13,2.072,1.259l60.589,9.364
				c1.726,0.271,3.348-0.92,3.615-2.647c0.267-1.727-0.921-3.348-2.647-3.615l-60.589-9.363
				C315.609,212.132,315.445,212.119,315.282,212.119z"/>
			
				<ellipse transform="matrix(0.6758 -0.7371 0.7371 0.6758 -12.8918 277.3073)" style="fill:#407BFF;" cx="308.802" cy="153.309" rx="13.67" ry="13.67"/>
		</g>
		<g style="opacity:0.9;">
			<g>
				<path style="fill:#407BFF;" d="M299.336,337.813l5.65-210.439c0.139-5.161-3.933-9.457-9.094-9.595l-99.692-2.676
					c-5.161-0.139-9.457,3.933-9.595,9.094l-5.65,210.439c-0.139,5.161,3.933,9.457,9.094,9.595l99.692,2.676
					C294.901,347.045,299.197,342.973,299.336,337.813z"/>
				<path style="opacity:0.1;" d="M299.336,337.813l5.65-210.439c0.139-5.161-3.933-9.457-9.094-9.595l-99.692-2.676
					c-5.161-0.139-9.457,3.933-9.595,9.094l-5.65,210.439c-0.139,5.161,3.933,9.457,9.094,9.595l99.692,2.676
					C294.901,347.045,299.197,342.973,299.336,337.813z"/>
			</g>
			<path style="opacity:0.2;fill:#263238;" d="M295.909,288.296l1.155-43.028c0.134-4.999-3.81-9.161-8.809-9.295l-90.771-2.437
				c-4.999-0.134-9.161,3.81-9.295,8.809l-1.155,43.028c-0.134,4.999,3.81,9.161,8.809,9.295l90.771,2.437
				C291.613,297.239,295.774,293.295,295.909,288.296z"/>
			<path style="fill:#FFFFFF;" d="M263.798,322.618c-0.174,6.479,4.937,11.872,11.416,12.046
				c6.479,0.174,11.872-4.937,12.046-11.416c0.174-6.479-4.937-11.872-11.416-12.046
				C269.365,311.028,263.972,316.139,263.798,322.618z"/>
			<path style="fill:#FFFFFF;" d="M193.795,320.738c-0.174,6.479,4.937,11.872,11.416,12.046s11.872-4.937,12.046-11.416
				c0.174-6.479-4.937-11.872-11.416-12.046C199.362,309.149,193.969,314.26,193.795,320.738z"/>
			<path style="fill:#FFFFFF;" d="M228.797,321.678c-0.174,6.479,4.937,11.872,11.416,12.046
				c6.479,0.174,11.872-4.937,12.046-11.416c0.174-6.479-4.937-11.872-11.416-12.046
				C234.364,310.088,228.971,315.199,228.797,321.678z"/>
			<path style="fill:#FFFFFF;" d="M299.588,151.247L299.588,151.247c0.168-6.255-4.767-11.462-11.022-11.63l-86.223-2.315
				c-6.255-0.168-11.462,4.767-11.63,11.022l0,0c-0.168,6.255,4.767,11.462,11.022,11.63l86.223,2.315
				C294.213,162.437,299.42,157.502,299.588,151.247z"/>
			<path style="fill:#FFFFFF;" d="M298.77,181.708L298.77,181.708c0.168-6.255-4.767-11.462-11.022-11.63l-86.223-2.315
				c-6.255-0.168-11.462,4.767-11.63,11.022l0,0c-0.168,6.255,4.767,11.462,11.022,11.63l86.223,2.315
				C293.395,192.898,298.602,187.963,298.77,181.708z"/>
			<path style="fill:#FFFFFF;" d="M297.952,212.169L297.952,212.169c0.168-6.255-4.767-11.462-11.022-11.63l-86.223-2.315
				c-6.255-0.168-11.462,4.767-11.63,11.022l0,0c-0.168,6.255,4.767,11.462,11.022,11.63l86.223,2.315
				C292.578,223.359,297.784,218.425,297.952,212.169z"/>
		</g>
	</g>
</g>
<g id="Character_1_">
	<g>
		<path style="fill:#263238;" d="M113.693,163.136l-1.188,1.346l-1.246,1.449l-2.456,2.965c-1.602,2.007-3.182,4.028-4.636,6.106
			c-2.944,4.118-5.559,8.414-7.309,12.673c-0.432,1.06-0.801,2.113-1.099,3.148c-0.272,0.858-0.441,1.812-0.581,2.886
			c-0.251,2.14-0.222,4.566-0.054,7.049c0.344,4.964,1.295,10.277,2.273,15.38l-6.486,2.632c-1.52-2.59-2.735-5.118-3.849-7.816
			c-1.11-2.677-2.056-5.45-2.796-8.358c-0.748-2.909-1.27-5.959-1.361-9.293c-0.052-1.66,0.063-3.441,0.39-5.255
			c0.311-1.634,0.716-3.209,1.186-4.734c1.948-6.061,4.838-11.339,8.047-16.258c1.629-2.445,3.328-4.813,5.148-7.078
			c0.905-1.137,1.83-2.255,2.791-3.35c0.48-0.548,0.961-1.098,1.464-1.635c0.515-0.555,0.977-1.044,1.594-1.673L113.693,163.136z"/>
		<path style="fill:#FFB573;" d="M98.518,216.235l2.706,2.443l-9.49,4.979c0,0-0.625-1.024-1.028-2.526
			c-0.697-2.596,1.029-5.324,3.701-5.934l0,0C95.891,214.857,97.42,215.243,98.518,216.235z"/>
		<polygon style="fill:#FFB573;" points="104.858,224.834 96.836,228.59 91.733,223.656 101.223,218.678 		"/>
		<path style="fill:#263238;" d="M139.501,126.514c-0.041,0.665,0.278,1.212,0.713,1.221c0.435,0.009,0.82-0.523,0.861-1.188
			c0.041-0.665-0.278-1.212-0.713-1.221C139.927,125.317,139.542,125.849,139.501,126.514z"/>
		<path style="fill:#FF5652;" d="M139.718,127.725c0,0,1.276,3.87,2.826,5.756c-1.243,1.074-3.212,0.53-3.212,0.53L139.718,127.725z
			"/>
		<path style="fill:#263238;" d="M137.311,122.772c0.097,0.017,0.202-0.002,0.293-0.063c1.46-0.979,2.753-0.475,2.807-0.451
			c0.195,0.08,0.428-0.017,0.517-0.216c0.089-0.2,0.003-0.426-0.192-0.507c-0.069-0.029-1.719-0.695-3.549,0.531
			c-0.183,0.123-0.237,0.366-0.122,0.544C137.123,122.699,137.213,122.755,137.311,122.772z"/>
		<path style="fill:#FFB573;" d="M120.263,129.052c0.796,6.136,1.071,18.532-3.409,22.001c0,0,1.455,5.004,12.668,6.402
			c12.329,1.537,6.284-5.339,6.284-5.339c-6.626-2.434-6.133-7.367-4.66-11.874L120.263,129.052z"/>
		<path style="fill:#407BFF;" d="M90.449,399.103c0.028-0.008,0.055-0.017,0.081-0.027c0.208-0.081,0.463-0.286,0.503-0.799
			c0.021-0.27-0.068-0.508-0.264-0.706c-0.851-0.862-3.616-0.693-3.733-0.686c-0.078,0.007-0.146,0.055-0.176,0.127
			c-0.03,0.073-0.015,0.154,0.038,0.208C87.476,397.811,89.432,399.377,90.449,399.103z M87.519,397.258
			c0.93-0.012,2.461,0.08,2.967,0.593c0.118,0.12,0.17,0.254,0.158,0.412c-0.029,0.366-0.19,0.43-0.243,0.45
			C89.847,398.932,88.436,398.07,87.519,397.258z"/>
		<path style="fill:#407BFF;" d="M88.429,397.065c0.992-0.268,2.064-0.762,2.296-1.33c0.065-0.159,0.12-0.47-0.24-0.76
			c-0.233-0.187-0.514-0.259-0.834-0.212c-1.227,0.174-2.703,2.12-2.765,2.203c-0.044,0.059-0.053,0.135-0.024,0.199
			c0.029,0.064,0.091,0.106,0.163,0.109C87.367,397.29,87.886,397.211,88.429,397.065z M89.554,395.179
			c0.047-0.013,0.093-0.022,0.138-0.029c0.213-0.031,0.39,0.013,0.541,0.134c0.195,0.157,0.15,0.268,0.131,0.316
			c-0.212,0.519-1.842,1.15-2.905,1.268C87.894,396.352,88.791,395.385,89.554,395.179z"/>
		<path style="fill:#407BFF;" d="M140.795,408.238c1.058,0,2.086-0.146,2.448-0.622c0.127-0.167,0.233-0.45,0.019-0.854
			c-0.12-0.226-0.323-0.38-0.601-0.457c-1.359-0.374-4.308,1.269-4.432,1.34c-0.072,0.041-0.114,0.121-0.104,0.201
			c0.01,0.08,0.069,0.144,0.148,0.16C138.795,408.111,139.808,408.238,140.795,408.238z M142.167,406.637
			c0.137,0,0.264,0.014,0.376,0.045c0.178,0.049,0.3,0.138,0.372,0.274c0.129,0.242,0.074,0.362,0.021,0.432
			c-0.406,0.532-2.492,0.544-4.017,0.328C139.699,407.324,141.203,406.637,142.167,406.637z"/>
		<path style="fill:#407BFF;" d="M138.311,408.009c0.027,0,0.055-0.005,0.081-0.017c1.014-0.447,3.059-2.231,2.946-3.164
			c-0.027-0.219-0.171-0.491-0.705-0.546c-0.396-0.037-0.767,0.073-1.097,0.336c-1.084,0.861-1.397,3.084-1.409,3.178
			c-0.009,0.07,0.019,0.137,0.073,0.178C138.231,407.997,138.271,408.009,138.311,408.009z M140.459,404.665
			c0.038,0,0.077,0.002,0.117,0.007c0.35,0.036,0.367,0.174,0.372,0.219c0.068,0.56-1.33,1.962-2.37,2.572
			c0.133-0.649,0.481-1.979,1.192-2.544C139.985,404.749,140.211,404.665,140.459,404.665z"/>
		<polygon style="fill:#FFB573;" points="129.247,407.814 137.497,407.814 139.093,388.708 130.843,388.708 		"/>
		<polygon style="fill:#FFB573;" points="77.76,396.781 85.605,398.31 92.849,379.631 85.004,378.102 		"/>
		<path style="fill:#263238;" d="M87.049,395.945l-7.759-4.761c-0.282-0.173-0.655-0.122-0.897,0.123l-5.386,5.455
			c-0.559,0.566-0.453,1.491,0.206,1.879c2.739,1.614,4.159,2.259,7.572,4.353c2.099,1.288,6.417,4.75,9.541,6.121
			c3.056,1.34,5.015-1.595,3.87-2.441c-5.134-3.793-5.604-6.99-6.304-9.605C87.766,396.596,87.462,396.198,87.049,395.945z"/>
		<path style="fill:#263238;" d="M137.481,406.859h-9.01c-0.337,0-0.639,0.234-0.725,0.564l-1.927,7.333
			c-0.2,0.76,0.348,1.481,1.127,1.467c3.252-0.055,7.956-0.246,12.041-0.246c4.776,0,5.549,0.26,11.151,0.26
			c3.387,0,4.466-3.424,3.061-3.734c-6.397-1.412-8.319-1.563-13.757-5.002C138.852,407.128,138.193,406.859,137.481,406.859z"/>
		<path style="fill:#263238;" d="M149.356,179.637c-0.114,2.807-0.307,5.896-0.602,9.299c-0.78,9.254-2.258,20.787-4.771,35.117
			H99.859c-0.026-6.263,4.759-35.003,1.332-64.535c-0.473-4.077,2.527-7.891,6.641-8.412c2.238-0.284,4.747-0.538,7.208-0.656
			c5.648-0.27,13.82-0.449,18.755,0c2.991,0.279,5.893,0.785,8.156,1.251c3.196,0.658,5.63,3.118,6.305,6.307
			C149.095,161.968,149.807,168.656,149.356,179.637z"/>
		<path style="opacity:0.3;" d="M140.411,224.178c-0.007,0-0.014-0.001-0.021-0.002c-0.068-0.012-0.114-0.077-0.102-0.145
			c2.314-13.195,3.919-25.006,4.77-35.106c0.279-3.216,0.481-6.343,0.602-9.294c0.467-11.367-0.339-18.019-1.096-21.599
			c-0.015-0.067,0.029-0.134,0.096-0.148c0.071-0.015,0.134,0.029,0.148,0.096c1.091,5.153,1.472,12.643,1.102,21.66
			c-0.12,2.955-0.323,6.085-0.603,9.305c-0.852,10.107-2.458,21.926-4.773,35.128C140.523,224.136,140.471,224.178,140.411,224.178z
			"/>
		<path style="opacity:0.2;" d="M141.538,172.92c-0.113,6.23,3.1,20.22,6.121,26.61c0.465-3.83,0.828-7.35,1.1-10.59
			c0.232-2.77,0.406-5.32,0.521-7.68L141.538,172.92z"/>
		<path style="fill:#FFB573;" d="M177.484,188.163l7.368-4.383l1.341,10.078c0,0-5.841,1.637-9.116-0.333L177.484,188.163z"/>
		<polygon style="fill:#FFB573;" points="194.544,184.503 192.114,192.546 186.193,193.857 184.852,183.78 		"/>
		<path style="fill:#263238;" d="M147.115,156.02c0.388,0.879,0.631,1.518,0.887,2.181c0.252,0.65,0.475,1.275,0.696,1.893
			l1.278,3.634c0.841,2.387,1.651,4.742,2.512,7.047c0.857,2.302,1.721,4.574,2.674,6.727c0.93,2.152,1.928,4.238,2.988,5.954
			c0.527,0.846,1.053,1.614,1.494,2.127c0.215,0.255,0.402,0.44,0.486,0.527c0.039,0.04,0.06,0.072,0.027,0.066
			c-0.039-0.007,0.007,0.021,0.065,0.052l0.143,0.095c0.441,0.243,1.181,0.499,2.053,0.665c0.876,0.171,1.884,0.24,2.949,0.29
			c4.281,0.125,9.314-0.62,14.061-1.375l0.238-0.038c1.934-0.307,3.751,1.011,4.058,2.945c0.23,1.446-0.453,2.828-1.619,3.561
			c-1.261,0.79-2.408,1.444-3.656,2.071c-1.229,0.63-2.492,1.195-3.786,1.722c-2.593,1.044-5.311,1.912-8.3,2.437
			c-1.496,0.275-3.066,0.421-4.756,0.422c-1.689-0.01-3.514-0.161-5.499-0.781l-0.753-0.261c-0.243-0.084-0.495-0.176-0.819-0.333
			c-0.615-0.282-1.141-0.59-1.637-0.907c-0.98-0.635-1.768-1.298-2.461-1.952c-1.372-1.313-2.417-2.596-3.33-3.877
			c-3.555-5.088-5.72-10.036-7.792-15.023c-1-2.49-1.938-4.972-2.799-7.438l-1.263-3.649l-0.596-1.741
			c-0.186-0.545-0.389-1.112-0.507-1.414l-0.078-0.199c-1.422-3.633,0.37-7.731,4.003-9.153
			C141.612,150.912,145.592,152.585,147.115,156.02z"/>
		<g>
			<polygon style="opacity:0.2;" points="139.091,388.714 138.27,398.562 130.016,398.562 130.838,388.714 			"/>
			<polygon style="opacity:0.2;" points="85,378.106 92.849,379.636 89.111,389.264 81.262,387.734 			"/>
		</g>
		<path style="fill:#FFB573;" d="M117.416,124.641c-0.001,8.181-0.418,12.986,3.448,17.266c5.815,6.438,16.122,2.907,18.571-5.209
			c2.204-7.305,1.835-19.457-5.956-22.875C125.802,110.455,117.417,116.459,117.416,124.641z"/>
		<path style="fill:#263238;" d="M135.91,128.75c0.703-1.917,3.496-10.167-1.691-12.75s-12.03-3.375-16.229-1.542
			c-4.199,1.833-7.305,8.542-7.305,8.542s1.969,14.125,10.241,16.667C129.198,142.208,138.511,132.417,135.91,128.75z"/>
		<path style="fill:#263238;" d="M133.912,117.056c1.15-0.278,2.466-1.272,2.466-1.272c2.982-2.915-2.313-4.867-7.572-5.34
			c-5.945-0.534-14.478,1.833-17.864,6.222C114.153,118.316,129.331,118.389,133.912,117.056z"/>
		<path style="fill:#263238;" d="M133.417,116.238c1.002,0.068,2.323-0.415,2.323-0.415c4.025-1.968-0.605-4.635-4.732-6.39
			c-4.666-1.984-12.176-2.233-16.052,0.528C117.121,112.16,129.368,116.156,133.417,116.238z"/>
		<path style="fill:#FFB573;" d="M132.318,127.616c-0.016,1.918,0.749,3.744,1.737,4.952c1.486,1.817,3.238,0.76,3.67-1.391
			c0.389-1.936,0.084-5.214-1.814-6.245C134.041,123.915,132.336,125.424,132.318,127.616z"/>
		<g>
			<g>
				<path style="fill:#407BFF;" d="M128.334,224.054c0,0,1.36,62.429-6.953,85.448c-13.167,36.462-27.459,78.781-27.459,78.781
					l-15.058-3.353c0,0,12.093-46.049,18.729-76.763c5.961-27.592,1.353-61.576,2.267-84.113
					C110.139,224.054,128.334,224.054,128.334,224.054z"/>
			</g>
			<g style="opacity:0.3;">
				<path style="fill:#FFFFFF;" d="M128.334,224.054c0,0,1.36,62.429-6.953,85.448c-13.167,36.462-27.459,78.781-27.459,78.781
					l-15.058-3.353c0,0,12.093-46.049,18.729-76.763c5.961-27.592,1.353-61.576,2.267-84.113
					C110.139,224.054,128.334,224.054,128.334,224.054z"/>
			</g>
		</g>
		<path style="opacity:0.2;" d="M128.401,237.964c-4.115-1.217-7.379-0.758-8.373,2.947c-2.592,9.673,2.972,35.181,5.787,46.851
			C127.828,271.042,128.33,251.044,128.401,237.964z"/>
		<g>
			<path style="fill:#407BFF;" d="M97.983,383.708c0.062,0.014-3.73,4.891-3.73,4.891L77.8,384.936l1.88-5.648L97.983,383.708z"/>
		</g>
		<g>
			<g>
				<path style="fill:#407BFF;" d="M143.988,224.054c0,0,9.164,52.453,9.018,77.613c-0.163,28.216-11.585,94.988-11.585,94.988
					h-13.976c0,0,1.761-67.121,2.182-92.821c0.459-28.018-14.646-79.78-14.646-79.78H143.988z"/>
			</g>
			<g style="opacity:0.3;">
				<path style="fill:#FFFFFF;" d="M143.988,224.054c0,0,9.164,52.453,9.018,77.613c-0.163,28.216-11.585,94.988-11.585,94.988
					h-13.976c0,0,1.761-67.121,2.182-92.821c0.459-28.018-14.646-79.78-14.646-79.78H143.988z"/>
			</g>
		</g>
		<g>
			<path style="fill:#407BFF;" d="M144.337,391.088c0.064,0-1.024,5.802-1.024,5.802h-17.001l-0.25-5.178L144.337,391.088z"/>
		</g>
		<path style="fill:#FFFFFF;" d="M128.271,241.958c-0.044,0-0.088-0.012-0.127-0.035l-5.819-3.438
			c-0.066-0.04-0.111-0.107-0.121-0.184l-1.195-9.313c-0.009-0.071,0.013-0.143,0.061-0.197c0.047-0.054,0.116-0.085,0.188-0.085
			h11.167c0.127,0,0.233,0.095,0.249,0.221l1.064,9.083c0.01,0.091-0.03,0.181-0.105,0.234l-5.216,3.667
			C128.372,241.943,128.321,241.958,128.271,241.958z M122.684,238.118l5.575,3.293l4.962-3.488l-1.021-8.714h-10.66
			L122.684,238.118z"/>
	</g>
</g>
</svg>
